<svg xmlns="http://www.w3.org/2000/svg" viewBox="0 0 800 800" width="800" height="800"><defs><linearGradient id="rg9" x1="0%" y1="0%" x2="100%" y2="100%"><stop offset="0%" stop-color="#c53f22"/><stop offset="100%" stop-color="#1c1712"/></linearGradient><filter id="rgn9"><feTurbulence type="fractalNoise" baseFrequency="0.85" numOctaves="2" stitchTiles="stitch" result="n"/><feColorMatrix in="n" type="matrix" values="0 0 0 0 1  0 0 0 0 1  0 0 0 0 1  0 0 0 0.045 0"/></filter></defs>
    <rect width="800" height="800" fill="url(#rg9)"/>
    <rect width="800" height="800" filter="url(#rgn9)"/>
    <path d="M310 220 h180 l-24 380 a20 20 0 0 1 -20 18 h-92 a20 20 0 0 1 -20 -18 Z" fill="none" stroke="#fdfbf6" stroke-width="3" opacity="0.45"/>
    <line x1="292" y1="420" x2="510" y2="420" stroke="#fdfbf6" stroke-width="2" opacity="0.3"/>
    <circle cx="449.2" cy="302.5" r="9.8" fill="#fdfbf6" opacity="0.35"/><circle cx="431.3" cy="466.7" r="5.8" fill="#fdfbf6" opacity="0.35"/><circle cx="458.7" cy="299.3" r="8.4" fill="#fdfbf6" opacity="0.35"/><circle cx="427.7" cy="436.2" r="6.0" fill="#fdfbf6" opacity="0.35"/><circle cx="461.3" cy="346.1" r="9.1" fill="#fdfbf6" opacity="0.35"/><circle cx="419.9" cy="370.1" r="7.7" fill="#fdfbf6" opacity="0.35"/><circle cx="455.6" cy="519.7" r="7.2" fill="#fdfbf6" opacity="0.35"/><circle cx="452.3" cy="316.9" r="8.7" fill="#fdfbf6" opacity="0.35"/><circle cx="376.7" cy="274.4" r="10.1" fill="#fdfbf6" opacity="0.35"/><circle cx="358.6" cy="417.9" r="7.5" fill="#fdfbf6" opacity="0.35"/></svg>
